<?xml version="1.0" encoding="UTF-8"?>
<!-- Generator: Adobe Illustrator 19.2.1, SVG Export Plug-In . SVG Version: 6.00 Build 0)  -->
<svg id="layer" width="600" height="198.39999" version="1.1" viewBox="0 0 600 198.39999" xml:space="preserve" xmlns="http://www.w3.org/2000/svg">
<style id="style179" type="text/css">
	.st0{fill:#B21124;}
	.st1{fill:#FFFFFF;}
	.st2{fill:#231815;}
</style>
<path id="path181" d="m540.9 52.5c5.9 0 11.2 4.3 11.2 10.9 0 6.7-5.3 10.9-11.2 10.9s-11.2-4.3-11.2-10.9c-0.1-6.6 5.2-10.9 11.2-10.9m0 19.5c4.5 0 8.2-3.6 8.2-8.6s-3.7-8.6-8.2-8.6c-4.6 0-8.2 3.6-8.2 8.6-0.1 5 3.6 8.6 8.2 8.6m-4.4-14.7h4.6c3.1 0 4.8 1 4.8 3.6 0 2.3-1.4 3.1-3.2 3.3l3.3 5.4h-2.5l-3-5.2h-1.5v5.2h-2.4v-12.3zm2.4 5.1h2.2c1.4 0 2.4-0.2 2.4-1.7 0-1.3-1.4-1.5-2.5-1.5h-2v3.2z"/>
<path id="path183" class="st0" d="m580 83.2h-60.1v9.3c0 7.4-7.2 17.2-18.7 17.2h-420v69.2c0 10.7 9 19.5 20 19.5h478.8c11 0 20-8.7 20-19.5v-76.2c0-10.8-9-19.5-20-19.5"/>
<path id="path185" d="m521.2 19.2c0-10.6-8.9-19.2-19.9-19.2h-481.4c-11 0-19.9 8.6-19.9 19.2v72.7c0 10.6 8.9 19.2 19.9 19.2h481.4c11 0 19.9-8.6 19.9-19.2z"/>
<polygon id="polygon187" class="st1" transform="translate(-20.2,-222.6)" points="50.5 241.8 70.3 241.8 70.3 298.7 101.2 298.7 101.2 315.9 50.5 315.9"/>
<rect id="rect189" class="st1" x="90.100006" y="19.200003" width="19.799999" height="74.099998"/>
<polygon id="polygon191" class="st1" transform="translate(-20.2,-222.6)" points="160.8 259 160 259 161.2 315.9 141.4 315.9 141.4 241.8 174.8 241.8 196.1 298.7 196.9 298.7 195.7 241.8 215.4 241.8 215.4 315.9 181.7 315.9"/>
<path id="path193" class="st1" d="m271.5 67.4c0 8.1-0.1 15.4-6.8 21-6.7 5.5-14.9 5.4-23.5 5.4-20.1 0-34.9-1-34.9-28v-19.2c0-24.5 13.1-28 34.9-28 20.4 0 29.8 2.1 30.2 24.3v2.9h-20.4v-2.9c-0.7-6.6-5.3-7.1-12-7.1-11.3 0-12.4 3.5-12.4 14v11.6c0 11.1 0.5 15.3 12.4 15.3 8.2 0 12.1-0.6 12.1-9.3v-2.2h20.4z"/>
<path id="path195" class="st1" d="m347.4 66.7c0 22.8-14.2 27.2-34.3 27.2-20 0-34.3-4.3-34.3-27.2v-20.9c0-22.8 14.2-27.2 34.3-27.2s34.3 4.3 34.3 27.2z"/>
<polygon id="polygon197" class="st1" transform="translate(-20.2,-222.6)" points="375.7 241.8 395.8 241.8 395.8 298.7 427.2 298.7 427.2 315.9 375.7 315.9"/>
<polygon id="polygon199" class="st1" transform="translate(-20.2,-222.6)" points="454.8 259 454 259 455.2 315.9 435.4 315.9 435.4 241.8 468.8 241.8 490.1 298.7 490.9 298.7 489.7 241.8 509.4 241.8 509.4 315.9 475.7 315.9"/>
<path id="path201" class="st2" d="m313.1 35.8c-10.3 0-13.6 1.1-13.9 12v16.7c0.3 11.1 3.6 12.1 13.9 12.1s13.9-1.1 13.9-12.1v-16.7c0-10.9-3.6-12-13.9-12"/>
<polygon id="polygon203" class="st1" transform="translate(-20.2,-222.6)" points="162.2 348.7 206.4 348.7 206.4 360.6 178.5 360.6 178.5 370.6 204.7 370.6 204.7 380.7 178.5 380.7 178.5 391.3 206.9 391.3 206.9 403.2 162.2 403.2"/>
<polygon id="polygon205" class="st1" transform="translate(-20.2,-222.6)" points="215.6 348.7 232 348.7 232 390.6 257.7 390.6 257.7 403.2 215.6 403.2"/>
<polygon id="polygon207" class="st1" transform="translate(-20.2,-222.6)" points="265.4 348.7 309.5 348.7 309.5 360.6 281.7 360.6 281.7 370.6 307.8 370.6 307.8 380.7 281.7 380.7 281.7 391.3 310.1 391.3 310.1 403.2 265.4 403.2"/>
<path id="path209" class="st1" d="m350.9 161.6c0 6-0.1 11.3-5.7 15.5-5.6 4.1-12.5 4-19.6 4-16.8 0-29.1-0.7-29.1-20.7v-14.1c0-18 11-20.7 29.1-20.7 17 0 24.9 1.5 25.2 17.9v2.1h-17v-2.1c-0.6-4.9-4.4-5.2-10.1-5.2-9.4 0-10.3 2.6-10.3 10.3v8.5c0 8.2 0.4 11.3 10.3 11.3 6.8 0 10.1-0.4 10.1-6.8v-1.6h17v1.6z"/>
<polygon id="polygon211" class="st1" transform="translate(-20.2,-222.6)" points="406.1 403.2 389.9 403.2 389.9 361.3 374.4 361.3 374.4 348.7 422.4 348.7 422.4 361.3 406.1 361.3"/>
<path id="path213" class="st1" d="m458.3 169.7v11h-15.8v-7.6c0.2-4.1-1.7-6.8-6.5-6.8h-12.2v14.5h-15.8v-54.5h30.5c13.7 0.2 20.4 2.9 20.4 16.5 0 9.1 0 14.4-11.2 16.8v0.6c6.4 0 10.6 3.3 10.6 9.5"/>
<rect id="rect215" class="st1" x="467.79999" y="126.10001" width="17" height="54.5"/>
<path id="path217" class="st1" d="m546.5 161.6c0 6-0.1 11.3-5.5 15.5-5.5 4.1-12.1 4-19.1 4-16.3 0-28.3-0.7-28.3-20.7v-14.1c0-18 10.6-20.7 28.3-20.7 16.5 0 24.2 1.5 24.5 17.9v2.1h-16.5v-2.1c-0.6-4.9-4.3-5.2-9.8-5.2-9.1 0-10 2.6-10 10.3v8.5c0 8.2 0.4 11.3 10 11.3 6.7 0 9.9-0.4 9.9-6.8v-1.6h16.5z"/>
<path id="path219" class="st0" d="m436 138.7h-12.2v14.8h12.2c6.8 0 6.6-2.3 6.6-8.5 0-4.9-1.4-6.3-6.6-6.3"/>
</svg>
